<?xml version="1.0" encoding="utf-8"?>
<!-- Generator: Adobe Illustrator 15.1.0, SVG Export Plug-In  -->
<!DOCTYPE svg PUBLIC "-//W3C//DTD SVG 1.1//EN" "http://www.w3.org/Graphics/SVG/1.1/DTD/svg11.dtd" [
	<!ENTITY ns_flows "http://ns.adobe.com/Flows/1.0/">
]>
<svg version="1.1"
	 xmlns="http://www.w3.org/2000/svg" xmlns:xlink="http://www.w3.org/1999/xlink" xmlns:a="http://ns.adobe.com/AdobeSVGViewerExtensions/3.0/"
	 x="0px" y="0px" width="67px" height="67px" viewBox="-0.417 -0.417 67 67"
	 overflow="visible" enable-background="new -0.417 -0.417 67 67" xml:space="preserve">
<defs>
</defs>
<path fill="#FFFFFF" d="M66.166,49.623v16.545H0V49.623c0-1.982,1.322-3.307,3.308-3.307c1.984,0,3.309,1.324,3.309,3.307v9.926
	h52.933v-9.926c0-1.982,1.323-3.307,3.307-3.307C64.841,46.316,66.166,47.64,66.166,49.623z M14.887,39.371l18.196,10.914
	l18.194-10.914c1.655-0.996,1.985-2.98,0.994-4.633c-0.994-1.655-2.979-1.986-4.633-0.992l-11.25,6.615V3.309
	C36.389,1.323,35.067,0,33.083,0c-1.985,0-3.31,1.323-3.31,3.309v37.052l-11.578-6.947c-1.654-0.993-3.64-0.331-4.632,1.324
	C12.901,36.39,13.231,38.375,14.887,39.371z"/>
</svg>
