<?xml version="1.0" encoding="utf-8"?>
<!-- Generator: Adobe Illustrator 23.0.3, SVG Export Plug-In . SVG Version: 6.00 Build 0)  -->
<svg xmlns="http://www.w3.org/2000/svg" width="245" height="245" viewBox="0 0 128 128"><defs><clipPath id="a"><path fill="none" d="M0 0h128v128H0z"></path></clipPath></defs><g clip-path="url(#a)" fill="#3c3c3b"><path d="M127.93 46.53v-.14a2.52 2.52 0 0 0-.15-.34v-.09a1.57 1.57 0 0 0-.3-.38l-.08-.06a1.71 1.71 0 0 0-.2-.18L110 33.75V6a6 6 0 0 0-6-6H24a6 6 0 0 0-6 6v27L.9 44.33l-.23.19H.61a1.57 1.57 0 0 0-.3.38l-.06.1a2.07 2.07 0 0 0-.15.34v.13A1.84 1.84 0 0 0 0 46v76a6 6 0 0 0 6 6h116c2.9 0 6-2.1 6-8V47a1.49 1.49 0 0 0-.07-.47M18 37.82v11.57L22 52V6a2 2 0 0 1 2-2h80a2 2 0 0 1 2 2v46.76l4-2.58v-11.6L122.37 47 71.75 79.63a14.2 14.2 0 0 0-15.47-.14l-15.2-10a8 8 0 0 1-2.78-1.89L5.63 46zM4 49.72L52.88 82 4 119.68zM6 124a2 2 0 0 1-.8-.19L57.66 83.4a10.22 10.22 0 0 1 12.57.06L121.76 124zm118-4v.65L75.12 82.21 124 50.67z"></path><path d="M28 13h14a2 2 0 0 0 0-4H28a2 2 0 0 0 0 4M52 19a2 2 0 0 0-2-2H28a2 2 0 0 0 0 4h22a2 2 0 0 0 2-2M87.82 41.81a3.75 3.75 0 0 0-3.75-3.74H42.89a3.75 3.75 0 0 0 0 7.49h41.18a3.75 3.75 0 0 0 3.75-3.75"></path></g></svg>
