<svg xmlns="http://www.w3.org/2000/svg" viewBox="0 0 200 200"><path fill="currentColor" stroke="currentColor" stroke-width="2" stroke-miterlimit="10" d="M100 4C47.1 4 4 47.1 4 100s43.1 96 96 96 96-43.1 96-96-43.1-96-96-96zm0 183.7c-24.2 0-46.2-9.7-62.1-25.9 17-22.8 39-35.3 62.1-35.3s45.1 12.5 62.1 35.3c-15.9 16.1-37.9 25.9-62.1 25.9zm0-72.4c-17.5 0-31.7-14.2-31.7-31.7S82.5 51.9 100 51.9s31.7 14.2 31.7 31.7-14.2 31.7-31.7 31.7zm67.6 40.4c-14.2-18.9-31.7-31.2-50.9-35.6 13.9-6.4 23.4-20.3 23.4-36.5 0-22.3-18.1-40.1-40.1-40.1-22.3 0-40.1 18.1-40.1 40.1 0 16.1 9.7 30.1 23.4 36.5-19.2 4.5-36.7 16.7-50.9 35.3-12.5-15-20-34.5-20-55.7 0-48.4 39.2-87.7 87.7-87.7s87.7 39.5 87.7 87.9c-.1 21.2-7.7 40.4-20.2 55.8z"/></svg>
