<?xml version="1.0" encoding="utf-8"?>
<!-- Generator: Adobe Illustrator 23.0.3, SVG Export Plug-In . SVG Version: 6.00 Build 0)  -->
<svg version="1.1" xmlns="http://www.w3.org/2000/svg" xmlns:xlink="http://www.w3.org/1999/xlink" x="0px" y="0px"
	 viewBox="0 0 200 200" style="enable-background:new 0 0 200 200;" xml:space="preserve">
<style type="text/css">
	.st0{display:none;}
	.st1{display:inline;}
	.st2{fill:#1D1D1B;stroke:#1D1D1B;stroke-width:2;stroke-miterlimit:10;}
	.st3{fill-rule:evenodd;clip-rule:evenodd;}
	.st4{stroke:#000000;stroke-width:0.5;stroke-miterlimit:10;}
	.st5{display:inline;fill-rule:evenodd;clip-rule:evenodd;}
</style>
<g id="Profile" class="st0">
	<g class="st1">
		<path class="st2" d="M100,4C47.1,4,4,47.1,4,100s43.1,96,96,96s96-43.1,96-96S152.9,4,100,4z M100,187.7
			c-24.2,0-46.2-9.7-62.1-25.9c17-22.8,39-35.3,62.1-35.3s45.1,12.5,62.1,35.3C146.2,177.9,124.2,187.7,100,187.7z M100,115.3
			c-17.5,0-31.7-14.2-31.7-31.7S82.5,51.9,100,51.9s31.7,14.2,31.7,31.7S117.5,115.3,100,115.3z M167.6,155.7
			c-14.2-18.9-31.7-31.2-50.9-35.6c13.9-6.4,23.4-20.3,23.4-36.5c0-22.3-18.1-40.1-40.1-40.1c-22.3,0-40.1,18.1-40.1,40.1
			c0,16.1,9.7,30.1,23.4,36.5c-19.2,4.5-36.7,16.7-50.9,35.3c-12.5-15-20-34.5-20-55.7c0-48.4,39.2-87.7,87.7-87.7
			s87.7,39.5,87.7,87.9C187.7,121.1,180.1,140.3,167.6,155.7z"/>
	</g>
</g>
<g id="Training" class="st0">
	<path class="st1" d="M187.8,56.3l-80.1-34.8c-4.9-2-10.5-2-15.4,0L12.2,56.3c-6.4,2.4-9.7,9.5-7.4,15.9c1.3,3.4,4,6.1,7.4,7.4
		l3.8,1.6v75.2L6.2,173c-1.7,2.9-0.7,6.5,2.1,8.2c0.9,0.5,2,0.8,3,0.8h21c3.3,0,6-2.7,6-6c0-1.1-0.3-2.1-0.8-3l-9.7-16.6V86.6
		l12,5.2v35.5c0,8.4,6.4,16.2,18,22c11.2,5.7,26.2,8.8,42,8.8s30.8-3.1,42.1-8.7c11.6-5.8,18-13.6,18-22V91.8l27.5-11.9l0.4-0.1
		c6.4-2.3,9.8-9.4,7.5-15.9C194.1,60.4,191.3,57.6,187.8,56.3L187.8,56.3z M148,127.3c0,3.5-4.3,7.8-11.3,11.3
		c-5.2,2.5-10.7,4.4-16.4,5.5c-13.4,2.7-27.2,2.7-40.6,0c-5.7-1.1-11.2-2.9-16.4-5.5c-7.1-3.5-11.4-7.7-11.4-11.3V97l40.3,17.5
		c4.9,2,10.5,2,15.4,0L148,97V127.3z M183,68.7l-80.1,34.8c-1.9,0.7-4,0.7-5.8,0L17,68.7c-0.4-0.1-0.7-0.4-1-0.7
		c0.3-0.3,0.6-0.5,1-0.7L97,32.5c1.9-0.7,4-0.7,5.8,0L183,67.3c0.4,0.1,0.7,0.4,1,0.7C183.7,68.3,183.4,68.5,183,68.7z"/>
</g>
<g id="Survey" class="st0">
	<g class="st1">
		<path d="M100,4C47.2,4,4,42.4,4,90.4c0,23,10.6,45.1,28.8,61.4V196l55.7-20.2c3.8,1,7.7,1,11.5,1c52.8,0,96-38.4,96-86.4
			S152.8,4,100,4z M100,157.6c-3.8,0-6.7,0-11.5-1h-1.9L52,169.1v-25.9l-3.8-2.9c-15.4-13.4-25-31.7-25-49.9
			c0-37.4,34.6-67.2,76.8-67.2s76.8,29.8,76.8,67.2S142.2,157.6,100,157.6z"/>
		<path d="M100,42.4c-16.3,0-28.8,12.5-28.8,28.8h19.2c0-5.8,3.8-9.6,9.6-9.6s9.6,3.8,9.6,9.6c0,2.9-1,5.8-3.8,7.7
			c-9.6,6.7-15.4,17.3-15.4,27.8v2.9h19.2v-2.9c0-6.7,4.8-10.6,7.7-12.5c6.7-5.8,11.5-14.4,11.5-23C128.8,54.9,116.3,42.4,100,42.4z
			"/>
		<rect x="90.4" y="119.2" width="19.2" height="19.2"/>
	</g>
</g>
<g id="Log_Out" class="st0">
	<g class="st1">
		<g transform="translate(-786.000000, -306.000000)">
			<g transform="translate(782.000000, 303.000000)">
				<g transform="translate(4.000000, 3.000000)">
					<path class="st3" d="M18.9,4L18.9,4c4.8,0,8.7,3.9,8.7,8.7v174.5c0,4.8-3.9,8.7-8.7,8.7l0,0c-4.8,0-8.7-3.9-8.7-8.7V12.7
						C10.2,7.9,14.1,4,18.9,4z"/>
					<path class="st3" d="M19,21.5c-4.8,0-8.7-3.9-8.7-8.7C10.2,7.9,14.1,4,19,4h87.2c4.8,0,8.7,3.9,8.7,8.7c0,4.8-3.9,8.7-8.7,8.7
						H19z"/>
					<path class="st3" d="M10.2,187.3L10.2,187.3c0-4.8,3.9-8.7,8.7-8.7h87.3c4.8,0,8.7,3.9,8.7,8.7l0,0c0,4.8-3.9,8.7-8.7,8.7H18.9
						C14.1,196,10.2,192.1,10.2,187.3z"/>
					<path class="st3" d="M58.2,108.7c-4.8,0-8.7-3.9-8.7-8.7c0-4.8,3.9-8.7,8.7-8.7h109.1c4.8,0,8.7,3.9,8.7,8.7
						c0,4.8-3.9,8.7-8.7,8.7H58.2z"/>
					<path class="st3" d="M186.1,106.2l-43.2,43.2c-3.4,3.4-8.9,3.4-12.3,0c-3.4-3.4-3.4-8.9,0-12.3l37-37l-37-37
						c-3.4-3.4-3.4-8.9,0-12.3c3.4-3.4,8.9-3.4,12.3,0l43.2,43.2C189.5,97.2,189.5,102.8,186.1,106.2z"/>
				</g>
			</g>
		</g>
	</g>
</g>
<g id="Wissen_x2B_" class="st0">
	<g class="st1">
		<path d="M141,55.6c-0.9,10.2-3.2,21.9-6.3,32.7c-6.5,24.5-18.2,44.8-37.3,68c-1.3,1.5-1.7,2.2-3.7,2.2H84c-1.9,0-3-1.1-3.5-3
			l-8.7-43.7c-6.7,14.9-16,29.2-28.6,44.6c-1.3,1.5-1.7,2.2-3.7,2.2H29.5c-1.9,0-3-1.1-3.5-3L6.5,54.7c-0.4-2.2,0.2-3.2,2.6-3.2h9.3
			c1.9,0,3,0.9,3.5,3l16,88.4c14.5-19.1,23.8-36.6,29-57l-6.1-31.2c-0.4-2.2,0.2-3.2,2.6-3.2h9.3c1.9,0,3.2,1.1,3.5,3l15.2,88.4
			c15.2-19.9,23.8-37.5,29.5-58.9c2.6-9.3,4.3-21.4,5-30.3c0.2-1.7,1.7-2.2,3.7-2.2h8.9C140.8,51.5,141.2,53.4,141,55.6z"/>
		<path d="M196.9,73.8l-0.5,3.7c-0.2,1.2-0.7,1.7-1.9,1.7h-18.6l-2.6,19.2c-0.2,1.3-0.6,1.6-1.8,1.6h-4.9c-1.2,0-2-0.4-1.8-2
			l2.6-18.8h-18.2c-1.2,0-1.9-0.7-1.8-2l0.6-3.6c0.1-1.1,0.5-1.6,1.7-1.6h18.8l2.6-18.8c0.2-1.4,0.6-1.6,1.8-1.6h4.9
			c1.2,0,1.9,0.5,1.7,2L177,72h18.4C196.6,72,197.2,72.5,196.9,73.8z"/>
	</g>
</g>
<g id="Database" class="st0">
	<g transform="translate(0,-270.54165)" class="st1">
		<path class="st4" d="M102.2,276.5c23.6,0,44.9,3.6,60.7,9.5c7.9,3,14.5,6.6,19.3,10.9c4.8,4.3,8,9.7,8,15.6v119.2
			c-1.1,5.2-4.7,10.3-8,13.3c-4.8,4.3-11.4,7.9-19.3,10.9c-15.8,6-37.2,9.5-60.7,9.5c-23.6,0-44.9-3.6-60.7-9.5
			c-7.9-3-14.5-6.6-19.3-10.9c-4-4.2-7-8.3-8-13.3V310.2c0-0.9,0.3-1.8,0.8-2.5c1.2-4,3.8-7.6,7.3-10.7c4.8-4.3,11.4-7.9,19.3-10.9
			C57.3,280.1,78.7,276.5,102.2,276.5L102.2,276.5z M102.2,285.2c-22.7,0-43.2,3.5-57.6,9c-7.2,2.7-12.9,6-16.6,9.3
			c-6.7,6.2-5.9,12.8,0,18.2c3.6,3.3,9.3,6.5,16.6,9.3c14.5,5.5,35,9,57.6,9s43.2-3.5,57.6-9c7.2-2.7,12.9-6,16.6-9.3
			c6.8-6.2,5.4-13.2,0-18.2c-3.6-3.3-9.4-6.5-16.6-9.3C145.4,288.7,124.9,285.2,102.2,285.2z M181.5,328.8c-4.7,4-11,7.4-18.5,10.2
			c-15.8,6-37.2,9.5-60.7,9.5c-23.6,0-44.9-3.6-60.7-9.5c-7.5-2.8-13.8-6.2-18.5-10.2v21.1c0.4,2.4,1.9,5,5,7.8
			c3.6,3.3,9.3,6.5,16.6,9.2c14.5,5.5,35,9,57.6,9s43.2-3.5,57.6-9c7.2-2.7,12.9-6,16.6-9.2c3.1-2.7,4.6-5.3,5-7.7V328.8z
			 M181.5,364.8c-4.7,4-11,7.4-18.5,10.2c-15.8,6-37.2,9.5-60.7,9.5c-23.6,0-44.9-3.6-60.7-9.5c-7.5-2.8-13.8-6.2-18.5-10.2v21.1
			c0.4,2.4,1.9,5,5,7.8c3.6,3.3,9.3,6.5,16.6,9.3c14.5,5.5,35,9,57.6,9s43.2-3.5,57.6-9c7.2-2.7,12.9-6,16.6-9.3
			c3.1-2.7,4.6-5.3,5-7.7V364.8z M181.5,400.8c-4.7,4-11,7.4-18.5,10.2c-15.8,6-37.2,9.5-60.7,9.5c-23.6,0-44.9-3.6-60.7-9.5
			c-7.5-2.8-13.8-6.2-18.5-10.2v30.1c0.4,2.4,1.9,5,5,7.8c3.6,3.3,9.3,6.5,16.6,9.2c14.5,5.5,35,9,57.6,9s43.2-3.5,57.6-9
			c7.2-2.7,12.9-6,16.6-9.2c3.1-2.7,4.6-5.3,5-7.7V400.8z"/>
	</g>
</g>
<g id="Menue" class="st0">
	<path class="st5" d="M15.4,47.6h168.3c7.8,0,14.1,6.3,14.1,14.1s-6.3,14.1-14.1,14.1H15.4c-7.8,0-14.1-6.3-14.1-14.1
		S7.6,47.6,15.4,47.6z"/>
	<path class="st5" d="M15.4,85.6h168.3c7.8,0,14.1,6.3,14.1,14.1s-6.3,14.1-14.1,14.1H15.4c-7.8,0-14.1-6.3-14.1-14.1
		S7.6,85.6,15.4,85.6z"/>
	<path class="st5" d="M15.4,123.6h168.3c7.8,0,14.1,6.3,14.1,14.1c0,7.8-6.3,14.1-14.1,14.1H15.4c-7.8,0-14.1-6.3-14.1-14.1
		C1.3,129.9,7.6,123.6,15.4,123.6z"/>
</g>
<g id="Monitoring" class="st0">
	<g class="st1">
		<polygon points="90,42 90,79.6 107.9,79.6 107.9,42 122.2,56.3 134.7,43.8 98.9,8 63.1,43.8 75.7,56.3 		"/>
		<path d="M9.4,97.5v71.6c0,9.8,8.1,17.9,17.9,17.9h143.3c9.8,0,17.9-8.1,17.9-17.9V97.5H9.4z M27.3,169.2v-53.7h143.3v53.7H27.3z"
			/>
		<rect x="72.1" y="133.3" width="53.7" height="17.9"/>
	</g>
</g>
<g id="Search">
	<path class="st3" d="M192.2,193.2c-5.1,5.1-13.1,5.1-18.2,0l-34.3-34.5c-14.2,10.6-31.7,16.7-50.8,16.7
		c-47.4,0-85.7-38.3-85.7-85.7S41.5,4,88.7,4s85.7,38.3,85.7,85.7c0,19-6.1,36.6-16.7,50.8l34.3,34.3
		C197.1,180.1,197.1,188.1,192.2,193.2z M88.7,29.8c-33.2,0-60.1,26.9-60.1,60.1S55.5,150,88.7,150s60.1-26.9,60.1-60.1
		S121.9,29.8,88.7,29.8z"/>
</g>
<g id="Close" class="st0">
	<path class="st1" d="M124.7,99.5l66.1-66.1c6.9-6.9,6.9-18.2,0-25.2c-6.9-6.9-18.2-6.9-25.2,0L99.5,74.3L33.4,8.2
		c-6.9-6.9-18.2-6.9-25.2,0s-6.9,18.2,0,25.2l66.1,66.1L8.2,165.6c-6.9,6.9-6.9,18.2,0,25.2c6.9,6.9,18.2,6.9,25.2,0l66.1-66.1
		l66.1,66.1c6.9,6.9,18.2,6.9,25.2,0c6.9-6.9,6.9-18.2,0-25.2L124.7,99.5z"/>
</g>
<g id="Filter" class="st0">
	<polygon class="st1" points="4,15.5 4,22.2 81.1,118.5 83.9,118.5 83.9,186.5 116.1,161.3 116.1,118.5 118.9,118.5 196,22.2 
		196,15.5 	"/>
</g>
<g id="Dropdown" class="st0">
	<path class="st5" d="M100.5,155.5L7,62h187L100.5,155.5z"/>
</g>
<g id="Time" class="st0">
	<path class="st1" d="M109.2,194.7c18.1,0,35.9-5.4,50.9-15.5c1.6-1.1,2-3.2,0.9-4.8c-1.1-1.6-3.2-2-4.8-0.9l0,0
		c-38.5,25.9-90.7,15.7-116.6-22.7S23.9,59.9,62.3,34c26.5-17.9,60.9-19.1,88.7-3.2c1.7,1,3.8,0.4,4.8-1.3c1-1.7,0.4-3.8-1.3-4.8
		c-43.6-25-99.2-10-124.2,33.6s-10,99.2,33.6,124.2C77.7,190.5,93.3,194.7,109.2,194.7z"/>
	<polygon class="st1" points="129.3,43.7 180.5,53 163,4 	"/>
</g>
<g id="Statistics" class="st0">
	<path class="st1" d="M48.9,155.8h-4.5v-26.5c0-1.4-1.2-2.6-2.6-2.6H24.9c-1.4-0.1-2.6,1.1-2.7,2.5c0,0,0,0.1,0,0.1v26.5h-4.5v-26.5
		c0-3.9,3.2-7.1,7.1-7.1c0,0,0.1,0,0.1,0h16.9c3.9,0,7.1,3.2,7.1,7.1V155.8z"/>
	<path class="st1" d="M136.2,155.8h-4.5v-43.3c0-1.4-1.2-2.6-2.6-2.6h-16.9c-1.4,0-2.6,1.1-2.6,2.6v43.3h-4.5v-43.3
		c0.1-3.8,3.2-6.9,7-7H129c3.9,0,7.1,3.2,7.1,7.1L136.2,155.8L136.2,155.8z"/>
	<path class="st1" d="M77,76.2c-3.3,0-6.4-1.7-8.1-4.5c-0.9-1.5-1.4-3.2-1.4-4.9c-0.1-5.3,4.1-9.6,9.4-9.7c5.3-0.1,9.6,4.1,9.7,9.4
		c0.1,5.3-4.1,9.6-9.4,9.7C77,76.2,77,76.2,77,76.2z M77,61.7c-2.8,0-5,2.2-5,5c0,0,0,0,0,0c0,0.9,0.2,1.8,0.7,2.5
		c1.4,2.4,4.4,3.2,6.8,1.8c2.4-1.4,3.2-4.4,1.8-6.8C80.4,62.7,78.7,61.7,77,61.7z"/>
	<path class="st1" d="M164.3,56.9c-5.2-0.1-9.3-4.4-9.2-9.5c0.1-5.2,4.4-9.3,9.5-9.2c5.1,0.1,9.2,4.3,9.2,9.4
		C173.8,52.7,169.5,56.9,164.3,56.9z M164.3,42.5c-2.7,0-5,2.3-4.9,5c0,2.7,2.3,5,5,4.9c2.7,0,4.9-2.3,4.9-5
		C169.3,44.7,167,42.4,164.3,42.5C164.3,42.5,164.3,42.5,164.3,42.5L164.3,42.5z"/>
	<path class="st1" d="M120.7,93c-5.2-0.1-9.3-4.4-9.2-9.5c0.1-5.2,4.4-9.3,9.5-9.2c5.1,0.1,9.2,4.3,9.2,9.4
		C130.1,88.8,125.9,93,120.7,93z M120.7,78.6c-2.7,0-4.9,2.3-4.9,5c0,2.7,2.3,4.9,5,4.9c2.7,0,4.9-2.2,4.9-5
		C125.7,80.8,123.4,78.6,120.7,78.6C120.7,78.6,120.7,78.6,120.7,78.6z"/>
	<path class="st1" d="M33.3,109.9c-5.2-0.1-9.3-4.4-9.2-9.5s4.4-9.3,9.5-9.2c5.1,0.1,9.2,4.3,9.2,9.4
		C42.8,105.7,38.5,109.9,33.3,109.9z M33.3,95.4c-2.7,0-4.9,2.3-4.9,5c0,2.7,2.3,4.9,5,4.9c2.7,0,4.9-2.2,4.9-5
		C38.3,97.6,36.1,95.4,33.3,95.4C33.3,95.4,33.3,95.4,33.3,95.4z"/>
	<polygon class="st1" points="41,97.3 38.2,93.8 69.5,68.5 72.3,72.1 72.1,72.2 	"/>
	
		<rect x="96.5" y="59.3" transform="matrix(0.3765 -0.9264 0.9264 0.3765 -7.9065 138.277)" class="st1" width="4.5" height="31.4"/>
	<rect x="122" y="64" transform="matrix(0.7545 -0.6563 0.6563 0.7545 -8.458 109.8421)" class="st1" width="41.2" height="4.5"/>
	<path class="st1" d="M179.9,155.8h-4.5V76.3c0-1.4-1.2-2.6-2.6-2.6h-16.9c-1.4,0-2.6,1.1-2.6,2.6v79.4h-4.5V76.3
		c0-3.9,3.2-7.1,7.1-7.1h16.9c3.9,0,7.1,3.2,7.1,7.1V155.8z"/>
	<path class="st1" d="M92.5,155.8H88V95.6c0-1.4-1.2-2.6-2.6-2.6H68.5c-1.4,0-2.6,1.1-2.6,2.6v60.2h-4.5V95.6c0-3.9,3.2-7,7.1-7
		h16.9c3.9,0,7.1,3.1,7.1,7V155.8z"/>
	<path class="st1" d="M189.7,158H10.3C9,158,8,157,8,155.8s1-2.3,2.3-2.3h179.5c1.2,0,2.3,1,2.3,2.3S191,158,189.7,158z"/>
</g>
</svg>
