<svg xmlns="http://www.w3.org/2000/svg" viewBox="0 0 200 200">
  <style>
    .st0{display:none}.st1{display:inline}.st3,.st5{fill-rule:evenodd;clip-rule:evenodd}.st5{display:inline}
  </style>
  <g id="Profile" class="st0">
    <path d="M100 4C47.1 4 4 47.1 4 100s43.1 96 96 96 96-43.1 96-96-43.1-96-96-96zm0 183.7c-24.2 0-46.2-9.7-62.1-25.9 17-22.8 39-35.3 62.1-35.3s45.1 12.5 62.1 35.3c-15.9 16.1-37.9 25.9-62.1 25.9zm0-72.4c-17.5 0-31.7-14.2-31.7-31.7S82.5 51.9 100 51.9s31.7 14.2 31.7 31.7-14.2 31.7-31.7 31.7zm67.6 40.4c-14.2-18.9-31.7-31.2-50.9-35.6 13.9-6.4 23.4-20.3 23.4-36.5 0-22.3-18.1-40.1-40.1-40.1-22.3 0-40.1 18.1-40.1 40.1 0 16.1 9.7 30.1 23.4 36.5-19.2 4.5-36.7 16.7-50.9 35.3-12.5-15-20-34.5-20-55.7 0-48.4 39.2-87.7 87.7-87.7s87.7 39.5 87.7 87.9c-.1 21.2-7.7 40.4-20.2 55.8z" fill="#1d1d1b" stroke="#1d1d1b" stroke-width="2" stroke-miterlimit="10"/>
  </g>
  <g id="Training" class="st0">
    <path class="st1" d="M187.8 56.3l-80.1-34.8c-4.9-2-10.5-2-15.4 0L12.2 56.3c-6.4 2.4-9.7 9.5-7.4 15.9 1.3 3.4 4 6.1 7.4 7.4l3.8 1.6v75.2L6.2 173c-1.7 2.9-.7 6.5 2.1 8.2.9.5 2 .8 3 .8h21c3.3 0 6-2.7 6-6 0-1.1-.3-2.1-.8-3l-9.7-16.6V86.6l12 5.2v35.5c0 8.4 6.4 16.2 18 22 11.2 5.7 26.2 8.8 42 8.8s30.8-3.1 42.1-8.7c11.6-5.8 18-13.6 18-22V91.8l27.5-11.9.4-.1c6.4-2.3 9.8-9.4 7.5-15.9-1.2-3.5-4-6.3-7.5-7.6zm-39.8 71c0 3.5-4.3 7.8-11.3 11.3-5.2 2.5-10.7 4.4-16.4 5.5-13.4 2.7-27.2 2.7-40.6 0-5.7-1.1-11.2-2.9-16.4-5.5-7.1-3.5-11.4-7.7-11.4-11.3V97l40.3 17.5c4.9 2 10.5 2 15.4 0L148 97v30.3zm35-58.6l-80.1 34.8c-1.9.7-4 .7-5.8 0L17 68.7c-.4-.1-.7-.4-1-.7.3-.3.6-.5 1-.7l80-34.8c1.9-.7 4-.7 5.8 0L183 67.3c.4.1.7.4 1 .7-.3.3-.6.5-1 .7z"/>
  </g>
  <g id="Survey" class="st0">
    <g class="st1">
      <path d="M100 4C47.2 4 4 42.4 4 90.4c0 23 10.6 45.1 28.8 61.4V196l55.7-20.2c3.8 1 7.7 1 11.5 1 52.8 0 96-38.4 96-86.4S152.8 4 100 4zm0 153.6c-3.8 0-6.7 0-11.5-1h-1.9L52 169.1v-25.9l-3.8-2.9c-15.4-13.4-25-31.7-25-49.9 0-37.4 34.6-67.2 76.8-67.2s76.8 29.8 76.8 67.2-34.6 67.2-76.8 67.2z"/>
      <path d="M100 42.4c-16.3 0-28.8 12.5-28.8 28.8h19.2c0-5.8 3.8-9.6 9.6-9.6s9.6 3.8 9.6 9.6c0 2.9-1 5.8-3.8 7.7-9.6 6.7-15.4 17.3-15.4 27.8v2.9h19.2v-2.9c0-6.7 4.8-10.6 7.7-12.5 6.7-5.8 11.5-14.4 11.5-23 0-16.3-12.5-28.8-28.8-28.8zM90.4 119.2h19.2v19.2H90.4z"/>
    </g>
  </g>
  <g id="Log_Out" class="st0">
    <g class="st1">
      <path class="st3" d="M18.9 4c4.8 0 8.7 3.9 8.7 8.7v174.5c0 4.8-3.9 8.7-8.7 8.7-4.8 0-8.7-3.9-8.7-8.7V12.7c0-4.8 3.9-8.7 8.7-8.7z"/>
      <path class="st3" d="M19 21.5c-4.8 0-8.7-3.9-8.7-8.7C10.2 7.9 14.1 4 19 4h87.2c4.8 0 8.7 3.9 8.7 8.7 0 4.8-3.9 8.7-8.7 8.7H19zM10.2 187.3c0-4.8 3.9-8.7 8.7-8.7h87.3c4.8 0 8.7 3.9 8.7 8.7 0 4.8-3.9 8.7-8.7 8.7H18.9c-4.8 0-8.7-3.9-8.7-8.7zM58.2 108.7c-4.8 0-8.7-3.9-8.7-8.7 0-4.8 3.9-8.7 8.7-8.7h109.1c4.8 0 8.7 3.9 8.7 8.7 0 4.8-3.9 8.7-8.7 8.7H58.2z"/>
      <path class="st3" d="M186.1 106.2l-43.2 43.2c-3.4 3.4-8.9 3.4-12.3 0-3.4-3.4-3.4-8.9 0-12.3l37-37-37-37c-3.4-3.4-3.4-8.9 0-12.3 3.4-3.4 8.9-3.4 12.3 0L186.1 94c3.4 3.2 3.4 8.8 0 12.2z"/>
    </g>
  </g>
  <g id="Wissen_x2B_" class="st0">
    <g class="st1">
      <path d="M141 55.6c-.9 10.2-3.2 21.9-6.3 32.7-6.5 24.5-18.2 44.8-37.3 68-1.3 1.5-1.7 2.2-3.7 2.2H84c-1.9 0-3-1.1-3.5-3l-8.7-43.7c-6.7 14.9-16 29.2-28.6 44.6-1.3 1.5-1.7 2.2-3.7 2.2h-10c-1.9 0-3-1.1-3.5-3L6.5 54.7c-.4-2.2.2-3.2 2.6-3.2h9.3c1.9 0 3 .9 3.5 3l16 88.4c14.5-19.1 23.8-36.6 29-57l-6.1-31.2c-.4-2.2.2-3.2 2.6-3.2h9.3c1.9 0 3.2 1.1 3.5 3l15.2 88.4c15.2-19.9 23.8-37.5 29.5-58.9 2.6-9.3 4.3-21.4 5-30.3.2-1.7 1.7-2.2 3.7-2.2h8.9c2.3 0 2.7 1.9 2.5 4.1zM196.9 73.8l-.5 3.7c-.2 1.2-.7 1.7-1.9 1.7h-18.6l-2.6 19.2c-.2 1.3-.6 1.6-1.8 1.6h-4.9c-1.2 0-2-.4-1.8-2l2.6-18.8h-18.2c-1.2 0-1.9-.7-1.8-2l.6-3.6c.1-1.1.5-1.6 1.7-1.6h18.8l2.6-18.8c.2-1.4.6-1.6 1.8-1.6h4.9c1.2 0 1.9.5 1.7 2L177 72h18.4c1.2 0 1.8.5 1.5 1.8z"/>
    </g>
  </g>
  <g id="Database" class="st0">
    <path d="M102.2 5.958c23.6 0 44.9 3.6 60.7 9.5 7.9 3 14.5 6.6 19.3 10.9 4.8 4.3 8 9.7 8 15.6v119.2c-1.1 5.2-4.7 10.3-8 13.3-4.8 4.3-11.4 7.9-19.3 10.9-15.8 6-37.2 9.5-60.7 9.5-23.6 0-44.9-3.6-60.7-9.5-7.9-3-14.5-6.6-19.3-10.9-4-4.2-7-8.3-8-13.3v-121.5c0-.9.3-1.8.8-2.5 1.2-4 3.8-7.6 7.3-10.7 4.8-4.3 11.4-7.9 19.3-10.9 15.7-6 37.1-9.6 60.6-9.6h0zm0 8.7c-22.7 0-43.2 3.5-57.6 9-7.2 2.7-12.9 6-16.6 9.3-6.7 6.2-5.9 12.8 0 18.2 3.6 3.3 9.3 6.5 16.6 9.3 14.5 5.5 35 9 57.6 9s43.2-3.5 57.6-9c7.2-2.7 12.9-6 16.6-9.3 6.8-6.2 5.4-13.2 0-18.2-3.6-3.3-9.4-6.5-16.6-9.3-14.4-5.5-34.9-9-57.6-9zm79.3 43.6c-4.7 4-11 7.4-18.5 10.2-15.8 6-37.2 9.5-60.7 9.5-23.6 0-44.9-3.6-60.7-9.5-7.5-2.8-13.8-6.2-18.5-10.2v21.1c.4 2.4 1.9 5 5 7.8 3.6 3.3 9.3 6.5 16.6 9.2 14.5 5.5 35 9 57.6 9s43.2-3.5 57.6-9c7.2-2.7 12.9-6 16.6-9.2 3.1-2.7 4.6-5.3 5-7.7v-21.2zm0 36c-4.7 4-11 7.4-18.5 10.2-15.8 6-37.2 9.5-60.7 9.5-23.6 0-44.9-3.6-60.7-9.5-7.5-2.8-13.8-6.2-18.5-10.2v21.1c.4 2.4 1.9 5 5 7.8 3.6 3.3 9.3 6.5 16.6 9.3 14.5 5.5 35 9 57.6 9s43.2-3.5 57.6-9c7.2-2.7 12.9-6 16.6-9.3 3.1-2.7 4.6-5.3 5-7.7v-21.2zm0 36c-4.7 4-11 7.4-18.5 10.2-15.8 6-37.2 9.5-60.7 9.5-23.6 0-44.9-3.6-60.7-9.5-7.5-2.8-13.8-6.2-18.5-10.2v30.1c.4 2.4 1.9 5 5 7.8 3.6 3.3 9.3 6.5 16.6 9.2 14.5 5.5 35 9 57.6 9s43.2-3.5 57.6-9c7.2-2.7 12.9-6 16.6-9.2 3.1-2.7 4.6-5.3 5-7.7v-30.2z" stroke="#000" stroke-width=".5" stroke-miterlimit="10"/>
  </g>
  <g id="Menue" class="st0">
    <path class="st5" d="M15.4 47.6h168.3c7.8 0 14.1 6.3 14.1 14.1s-6.3 14.1-14.1 14.1H15.4c-7.8 0-14.1-6.3-14.1-14.1s6.3-14.1 14.1-14.1zM15.4 85.6h168.3c7.8 0 14.1 6.3 14.1 14.1s-6.3 14.1-14.1 14.1H15.4c-7.8 0-14.1-6.3-14.1-14.1s6.3-14.1 14.1-14.1zM15.4 123.6h168.3c7.8 0 14.1 6.3 14.1 14.1s-6.3 14.1-14.1 14.1H15.4c-7.8 0-14.1-6.3-14.1-14.1s6.3-14.1 14.1-14.1z"/>
  </g>
  <g id="Monitoring" class="st0">
    <g class="st1">
      <path d="M90 42v37.6h17.9V42l14.3 14.3 12.5-12.5L98.9 8 63.1 43.8l12.6 12.5zM9.4 97.5v71.6c0 9.8 8.1 17.9 17.9 17.9h143.3c9.8 0 17.9-8.1 17.9-17.9V97.5H9.4zm17.9 71.7v-53.7h143.3v53.7H27.3z"/>
      <path d="M72.1 133.3h53.7v17.9H72.1z"/>
    </g>
  </g>
  <g id="Search" class="st0">
    <path class="st5" d="M192.2 193.2c-5.1 5.1-13.1 5.1-18.2 0l-34.3-34.5c-14.2 10.6-31.7 16.7-50.8 16.7-47.4 0-85.7-38.3-85.7-85.7S41.5 4 88.7 4s85.7 38.3 85.7 85.7c0 19-6.1 36.6-16.7 50.8l34.3 34.3c5.1 5.3 5.1 13.3.2 18.4zM88.7 29.8c-33.2 0-60.1 26.9-60.1 60.1S55.5 150 88.7 150s60.1-26.9 60.1-60.1-26.9-60.1-60.1-60.1z"/>
  </g>
  <g id="Close" class="st0">
    <path class="st1" d="M124.7 99.5l66.1-66.1c6.9-6.9 6.9-18.2 0-25.2-6.9-6.9-18.2-6.9-25.2 0L99.5 74.3 33.4 8.2c-6.9-6.9-18.2-6.9-25.2 0s-6.9 18.2 0 25.2l66.1 66.1-66.1 66.1c-6.9 6.9-6.9 18.2 0 25.2 6.9 6.9 18.2 6.9 25.2 0l66.1-66.1 66.1 66.1c6.9 6.9 18.2 6.9 25.2 0 6.9-6.9 6.9-18.2 0-25.2l-66.1-66.1z"/>
  </g>
  <g id="Filter" class="st0">
    <path class="st1" d="M4 15.5v6.7l77.1 96.3h2.8v68l32.2-25.2v-42.8h2.8L196 22.2v-6.7z"/>
  </g>
  <g id="Dropdown" class="st0">
    <path class="st5" d="M100.5 155.5L7 62h187l-93.5 93.5z"/>
  </g>
  <g id="Time" class="st0">
    <path class="st1" d="M109.2 194.7c18.1 0 35.9-5.4 50.9-15.5 1.6-1.1 2-3.2.9-4.8-1.1-1.6-3.2-2-4.8-.9-38.5 25.9-90.7 15.7-116.6-22.7S23.9 59.9 62.3 34c26.5-17.9 60.9-19.1 88.7-3.2 1.7 1 3.8.4 4.8-1.3 1-1.7.4-3.8-1.3-4.8-43.6-25-99.2-10-124.2 33.6s-10 99.2 33.6 124.2c13.8 8 29.4 12.2 45.3 12.2z"/>
    <path class="st1" d="M129.3 43.7l51.2 9.3L163 4z"/>
  </g>
  <g id="Statistics">
    <path d="M48.9 155.8h-4.5v-26.5c0-1.4-1.2-2.6-2.6-2.6H24.9c-1.4-.1-2.6 1.1-2.7 2.5v26.6h-4.5v-26.5c0-3.9 3.2-7.1 7.1-7.1h17c3.9 0 7.1 3.2 7.1 7.1v26.5zM136.2 155.8h-4.5v-43.3c0-1.4-1.2-2.6-2.6-2.6h-16.9c-1.4 0-2.6 1.1-2.6 2.6v43.3h-4.5v-43.3c.1-3.8 3.2-6.9 7-7H129c3.9 0 7.1 3.2 7.1 7.1l.1 43.2zM77 76.2c-3.3 0-6.4-1.7-8.1-4.5-.9-1.5-1.4-3.2-1.4-4.9-.1-5.3 4.1-9.6 9.4-9.7 5.3-.1 9.6 4.1 9.7 9.4.1 5.3-4.1 9.6-9.4 9.7H77zm0-14.5c-2.8 0-5 2.2-5 5 0 .9.2 1.8.7 2.5 1.4 2.4 4.4 3.2 6.8 1.8 2.4-1.4 3.2-4.4 1.8-6.8-.9-1.5-2.6-2.5-4.3-2.5zM164.3 56.9c-5.2-.1-9.3-4.4-9.2-9.5.1-5.2 4.4-9.3 9.5-9.2 5.1.1 9.2 4.3 9.2 9.4 0 5.1-4.3 9.3-9.5 9.3zm0-14.4c-2.7 0-5 2.3-4.9 5 0 2.7 2.3 5 5 4.9 2.7 0 4.9-2.3 4.9-5s-2.3-5-5-4.9zM120.7 93c-5.2-.1-9.3-4.4-9.2-9.5.1-5.2 4.4-9.3 9.5-9.2 5.1.1 9.2 4.3 9.2 9.4-.1 5.1-4.3 9.3-9.5 9.3zm0-14.4c-2.7 0-4.9 2.3-4.9 5s2.3 4.9 5 4.9 4.9-2.2 4.9-5c0-2.7-2.3-4.9-5-4.9zM33.3 109.9c-5.2-.1-9.3-4.4-9.2-9.5s4.4-9.3 9.5-9.2c5.1.1 9.2 4.3 9.2 9.4 0 5.1-4.3 9.3-9.5 9.3zm0-14.5c-2.7 0-4.9 2.3-4.9 5s2.3 4.9 5 4.9 4.9-2.2 4.9-5c0-2.7-2.2-4.9-5-4.9z"/>
    <path d="M41 97.3l-2.8-3.5 31.3-25.3 2.8 3.6-.2.1z"/>
    <path transform="rotate(-67.883 98.776 75.014)" d="M96.5 59.3h4.5v31.4h-4.5z"/>
    <path transform="rotate(-41.018 142.593 66.227)" d="M122 64h41.2v4.5H122z"/>
    <path d="M179.9 155.8h-4.5V76.3c0-1.4-1.2-2.6-2.6-2.6h-16.9c-1.4 0-2.6 1.1-2.6 2.6v79.4h-4.5V76.3c0-3.9 3.2-7.1 7.1-7.1h16.9c3.9 0 7.1 3.2 7.1 7.1v79.5zM92.5 155.8H88V95.6c0-1.4-1.2-2.6-2.6-2.6H68.5c-1.4 0-2.6 1.1-2.6 2.6v60.2h-4.5V95.6c0-3.9 3.2-7 7.1-7h16.9c3.9 0 7.1 3.1 7.1 7v60.2z"/>
    <path d="M189.7 158H10.3C9 158 8 157 8 155.8s1-2.3 2.3-2.3h179.5c1.2 0 2.3 1 2.3 2.3s-1.1 2.2-2.4 2.2z"/>
  </g>
</svg>
