<svg xmlns="http://www.w3.org/2000/svg" xmlns:xlink="http://www.w3.org/1999/xlink" width="30" height="26.834" viewBox="0 0 30 26.834">
  <defs>
    <linearGradient id="linear-gradient" x1="1" x2="0" y2="1" gradientUnits="objectBoundingBox">
      <stop offset="0" stop-color="#ff9b99"/>
      <stop offset="1" stop-color="#e72d4b"/>
    </linearGradient>
  </defs>
  <path id="Pfad_77" data-name="Pfad 77" d="M15.293,26.746a.534.534,0,0,1-.585,0l-.4-.263C13.721,26.1,0,17.034,0,8.857,0,3.042,4.133,0,8.215,0A8.779,8.779,0,0,1,15,3.321,8.781,8.781,0,0,1,21.785,0C25.867,0,30,3.042,30,8.857,30,17.033,16.279,26.1,15.7,26.482ZM8.215,2.539c-2.733,0-5.675,1.977-5.675,6.318,0,5.178,7.976,11.872,12.126,14.8a.58.58,0,0,0,.669,0c4.149-2.926,12.126-9.62,12.126-14.8,0-4.341-2.941-6.318-5.674-6.318a6.4,6.4,0,0,0-5.521,3.4c-.052.087-.1.163-.141.249l-.733,1.386a.441.441,0,0,1-.779,0l-.734-1.385c-.046-.087-.09-.164-.132-.234a6.406,6.406,0,0,0-5.53-3.416Z" transform="translate(0 0.001)" fill="url(#linear-gradient)"/>
</svg>
