<svg xmlns="http://www.w3.org/2000/svg" xmlns:xlink="http://www.w3.org/1999/xlink" width="85" height="85" viewBox="0 0 85 85">
  <defs>
    <linearGradient id="linear-gradient" x1="0.823" y1="0.155" x2="0.193" y2="0.909" gradientUnits="objectBoundingBox">
      <stop offset="0" stop-color="#D5B03A"/>
      <stop offset="1" stop-color="#E8CF81"/>
    </linearGradient>
  </defs>
  <g id="Gruppe_58" data-name="Gruppe 58" transform="translate(-667 -2380)">
    <circle id="Ellipse_46" data-name="Ellipse 46" cx="42.5" cy="42.5" r="42.5" transform="translate(667 2380)" fill="url(#linear-gradient)"/>
    <g id="noun_Star_4402357" transform="translate(678.279 2391.279)" opacity="0.3">
      <path id="Pfad_8" data-name="Pfad 8" d="M29.091,39.735a.841.841,0,0,0,.154.769l7.386,7.155-1.77,10.156a.731.731,0,0,0,.308.769.91.91,0,0,0,.769.077l9.233-4.77,9.079,4.77a.694.694,0,0,0,.385.077,1.093,1.093,0,0,0,.462-.154.731.731,0,0,0,.308-.769l-1.77-10.079,7.386-7.155a.613.613,0,0,0,.154-.769,1.067,1.067,0,0,0-.616-.539L50.4,37.811l-4.539-9.233a.8.8,0,0,0-1.385,0l-4.539,9.233L29.783,39.2A1.228,1.228,0,0,0,29.091,39.735ZM40.555,39.2a.785.785,0,0,0,.616-.385l4-8.232,4,8.232a.685.685,0,0,0,.616.385L58.866,40.5l-6.54,6.386a1.074,1.074,0,0,0-.231.692l1.539,9-8.078-4.232a1,1,0,0,0-.769,0l-8.078,4.232,1.539-9a.621.621,0,0,0-.231-.692L31.476,40.5Z" transform="translate(-13.626 -13.422)" fill="#fff"/>
      <path id="Pfad_9" data-name="Pfad 9" d="M49.769,20.541a.827.827,0,0,0,.769-.769v-10a.769.769,0,0,0-1.539,0v10A.827.827,0,0,0,49.769,20.541Z" transform="translate(-18.225 -9)" fill="#fff"/>
      <path id="Pfad_10" data-name="Pfad 10" d="M49.769,87.541a.771.771,0,0,0,.769-.769v-10a.769.769,0,1,0-1.539,0v10A.771.771,0,0,0,49.769,87.541Z" transform="translate(-18.225 -24.452)" fill="#fff"/>
      <path id="Pfad_11" data-name="Pfad 11" d="M69.408,29.086l7.078-7.078a.762.762,0,0,0-1.077-1.077l-7.078,7.078a.744.744,0,0,0,0,1.077.744.744,0,0,0,1.077,0Z" transform="translate(-22.63 -11.698)" fill="#fff"/>
      <path id="Pfad_12" data-name="Pfad 12" d="M22.008,76.486l7.078-7.078a.762.762,0,0,0-1.077-1.077l-7.078,7.078a.744.744,0,0,0,0,1.077.744.744,0,0,0,1.077,0Z" transform="translate(-11.698 -22.63)" fill="#fff"/>
      <path id="Pfad_13" data-name="Pfad 13" d="M86.771,49h-10a.769.769,0,1,0,0,1.539h10a.769.769,0,1,0,0-1.539Z" transform="translate(-24.452 -18.225)" fill="#fff"/>
      <path id="Pfad_14" data-name="Pfad 14" d="M9.769,50.539h10a.769.769,0,0,0,0-1.539h-10a.769.769,0,0,0,0,1.539Z" transform="translate(-9 -18.225)" fill="#fff"/>
      <path id="Pfad_15" data-name="Pfad 15" d="M69.408,68.331a.762.762,0,0,0-1.077,1.077l7.078,7.078a.744.744,0,0,0,1.077,0,.744.744,0,0,0,0-1.077Z" transform="translate(-22.63 -22.63)" fill="#fff"/>
      <path id="Pfad_16" data-name="Pfad 16" d="M22.008,20.931a.762.762,0,0,0-1.077,1.077l7.078,7.078a.744.744,0,0,0,1.077,0,.744.744,0,0,0,0-1.077Z" transform="translate(-11.698 -11.698)" fill="#fff"/>
      <path id="Pfad_17" data-name="Pfad 17" d="M81.689,35.757a.706.706,0,0,0-1-.385l-6.232,2.539a.706.706,0,0,0-.385,1,.739.739,0,0,0,.692.462.463.463,0,0,0,.308-.077L81.3,36.757A.841.841,0,0,0,81.689,35.757Z" transform="translate(-23.986 -15.061)" fill="#fff"/>
      <path id="Pfad_18" data-name="Pfad 18" d="M15.982,62.988a.739.739,0,0,0,.692.462.463.463,0,0,0,.308-.077l6.232-2.616a.758.758,0,1,0-.616-1.385l-6.232,2.539A.885.885,0,0,0,15.982,62.988Z" transform="translate(-10.597 -20.596)" fill="#fff"/>
      <path id="Pfad_19" data-name="Pfad 19" d="M62.7,81.766a.463.463,0,0,0,.308-.077.706.706,0,0,0,.385-1l-2.539-6.232a.758.758,0,1,0-1.385.616L62.011,81.3A.779.779,0,0,0,62.7,81.766Z" transform="translate(-20.619 -23.986)" fill="#fff"/>
      <path id="Pfad_20" data-name="Pfad 20" d="M38.681,23.676a.463.463,0,0,0,.308-.077.706.706,0,0,0,.385-1l-2.539-6.232a.885.885,0,0,0-1.077-.385.706.706,0,0,0-.385,1l2.539,6.232A.846.846,0,0,0,38.681,23.676Z" transform="translate(-15.061 -10.597)" fill="#fff"/>
      <path id="Pfad_21" data-name="Pfad 21" d="M60.1,23.676a.673.673,0,0,0,.692-.462l2.616-6.232a.758.758,0,1,0-1.385-.616L59.482,22.6a.763.763,0,0,0,.385,1A.283.283,0,0,0,60.1,23.676Z" transform="translate(-20.629 -10.597)" fill="#fff"/>
      <path id="Pfad_22" data-name="Pfad 22" d="M36.075,81.776a.673.673,0,0,0,.692-.462l2.539-6.232a.758.758,0,1,0-1.385-.616L35.382,80.7a.763.763,0,0,0,.385,1C35.844,81.7,36,81.776,36.075,81.776Z" transform="translate(-15.071 -23.996)" fill="#fff"/>
      <path id="Pfad_23" data-name="Pfad 23" d="M81.215,62.021l-6.232-2.539a.758.758,0,0,0-.616,1.385L80.6,63.483c.077.077.154.077.308.077A.673.673,0,0,0,81.6,63.1.765.765,0,0,0,81.215,62.021Z" transform="translate(-23.973 -20.629)" fill="#fff"/>
      <path id="Pfad_24" data-name="Pfad 24" d="M15.982,35.767a.763.763,0,0,0,.385,1L22.6,39.306c.077,0,.154.077.308.077a.673.673,0,0,0,.692-.462.763.763,0,0,0-.385-1l-6.232-2.539A.763.763,0,0,0,15.982,35.767Z" transform="translate(-10.597 -15.071)" fill="#fff"/>
    </g>
  </g>
</svg>
