<svg xmlns="http://www.w3.org/2000/svg" width="73.877" height="90.281" viewBox="0 0 73.877 90.281">
  <g id="noun_Coins_4115285" opacity="0.25">
    <path id="Pfad_25" data-name="Pfad 25" d="M292.065,120.114a40.913,40.913,0,0,0-10-8.807,41.339,41.339,0,0,0-12.123-5.562c-4.047-.963-6.81-.5-8.023,1.337l-3.263,5.028c-2.639,4.047,4.243,11.624,12.034,16.687,5.331,3.459,11.553,6.044,15.8,6.044,1.961,0,3.512-.553,4.35-1.836l3.263-5.028C295.292,126.139,294.6,123.412,292.065,120.114Zm-25.8-12.836a13.905,13.905,0,0,1,3.209.428,39.567,39.567,0,0,1,11.5,5.277,38.524,38.524,0,0,1,9.5,8.344c1.89,2.46,2.6,4.528,1.943,5.562s-2.853,1.212-5.865.481a39.357,39.357,0,0,1-11.5-5.277,38.2,38.2,0,0,1-9.5-8.344c-1.89-2.46-2.6-4.528-1.943-5.562C264,107.58,264.948,107.277,266.268,107.277Zm-5.919,5.937,1.373-2.122a11.587,11.587,0,0,0,1.337,2.6l-2.05,3.156c-.891-1.587-1.159-2.888-.66-3.637Zm1.872,5.438,2.1-3.227a37.5,37.5,0,0,0,6.507,6.151l-2.157,3.334a33.961,33.961,0,0,1-6.454-6.258Zm8.04,7.434,2.175-3.334c.5.357,1,.7,1.515,1.034A51.212,51.212,0,0,0,280.3,127.3l-2.157,3.316a47.83,47.83,0,0,1-6.365-3.476c-.5-.357-1.016-.7-1.515-1.052Zm18.88,5.83c-.909,1.391-4.475,1.212-9.11-.553l2.139-3.3a29.885,29.885,0,0,0,3.887,1.248,16.874,16.874,0,0,0,3.673.5c.267,0,.535-.018.784-.036Z" transform="translate(-220.788 -87.007)" fill="#fff"/>
    <path id="Pfad_26" data-name="Pfad 26" d="M114.973,99.5a35.187,35.187,0,0,0,1.943-11.392c-.107-4.617-1.694-6.1-3-6.507l-4.9-1.6h0c-4.047-1.319-8.9,6.151-11.41,13.835a35.262,35.262,0,0,0-1.943,11.392c.125,4.617,1.694,6.079,3,6.507h0l4.9,1.6a2.948,2.948,0,0,0,.963.16C108.358,113.5,112.655,106.6,114.973,99.5Zm-4.225,5.045-3-.981a43.374,43.374,0,0,0,2.3-5.669c.143-.464.285-.909.428-1.373l3.013.981c-.143.464-.267.909-.428,1.373A39.012,39.012,0,0,1,110.747,104.547Zm4.154-16.4h0a29.456,29.456,0,0,1-.909,7.4l-3.013-.981a34.143,34.143,0,0,0,1-7.381Zm-.214-2.175-2.8-.909a11.272,11.272,0,0,0-.428-2.157l1.836.588c.624.214,1.123,1.105,1.391,2.478ZM99.5,94.456c2.656-8.147,6.579-12.6,8.54-12.6a1.12,1.12,0,0,1,.339.053h0c1.8.588,2.6,6.721-.232,15.368a33.388,33.388,0,0,1-4.831,9.752c-1.569,2.032-3.12,3.12-4.047,2.817s-1.551-2.086-1.622-4.653A33.62,33.62,0,0,1,99.5,94.456Zm4.689,16.972-1.818-.588a13.562,13.562,0,0,0,2.549-2.6,25.718,25.718,0,0,0,1.89-2.87l2.977.963C107.592,110.038,105.363,111.821,104.187,111.429Z" transform="translate(-87.321 -66.128)" fill="#fff"/>
    <path id="Pfad_27" data-name="Pfad 27" d="M187.306,308.3l-5.455-4.671c-3.708-3.191-12.284.927-19.5,9.342a37.2,37.2,0,0,0-7.131,11.891c-1.337,4.047-1.034,7.185.856,8.807l5.455,4.671a4.847,4.847,0,0,0,3.245,1.07c4.314,0,10.7-3.922,16.259-10.412C188.268,320.583,191.014,311.491,187.306,308.3Zm-.464,5.794-3.708-3.191a12.157,12.157,0,0,0,.374-3.209l2.5,2.139c.874.749,1.159,2.246.838,4.261Zm-1.961,5.669-3.887-3.334a29.245,29.245,0,0,0,1.5-3.423l3.815,3.28a23.374,23.374,0,0,1-1.426,3.476Zm-2.924,4.831-3.922-3.369c.731-1.016,1.391-2.015,1.979-3.013l3.9,3.352C183.348,322.544,182.688,323.56,181.957,324.594Zm-24.817.891a35.044,35.044,0,0,1,6.739-11.214c5.473-6.383,11.356-9.734,14.708-9.734a2.9,2.9,0,0,1,1.961.606c2.407,2.068.339,9.912-6.489,17.864A35.089,35.089,0,0,1,164,331.369c-3,1.515-5.4,1.8-6.614.749s-1.3-3.441-.25-6.632Zm16.99,7.47-3.9-3.352q1.364-1.123,2.674-2.407l3.922,3.37a35.983,35.983,0,0,1-2.692,2.389Zm-4.867,3.191-3.8-3.263a27.588,27.588,0,0,0,3.138-2.015l3.887,3.334A24.6,24.6,0,0,1,169.264,336.147Zm-6.418.677-2.46-2.122a12.346,12.346,0,0,0,3.1-.874l3.69,3.173c-1.925.606-3.459.571-4.332-.178Zm15.386-7.684-3.922-3.37q.642-.7,1.284-1.444c.428-.5.838-.98,1.23-1.5l3.922,3.37q-.588.749-1.23,1.5t-1.284,1.444Z" transform="translate(-135.586 -249.128)" fill="#fff"/>
    <path id="Pfad_28" data-name="Pfad 28" d="M379.7,13.187v.089l.018.053v.036a1.217,1.217,0,0,0,.053.143v.018a.446.446,0,0,0,.071.125l.018.018c.018.036.054.071.089.125l.018.018.107.107.018.018c.036.036.089.053.125.089h0c.036.018.089.036.125.053h.018c.036.018.071.018.107.036,4.546,1,4.617,8.183,4.617,8.308h0v.089c0,.036,0,.053.018.071s0,.018,0,.018a.967.967,0,0,0,.5.677h.018l.071.036.018.018.053.018.036.018.036.018.054.018h.036l.053.018h.232l.071-.018h.036l.071-.018h.018l.071-.036h0a1.01,1.01,0,0,0,.553-.624h0a.161.161,0,0,0,.018-.089v-.018a.107.107,0,0,1,.018-.071v-.089h0c0-.107.053-7.31,4.617-8.308a.253.253,0,0,0,.107-.036h.018a.87.87,0,0,0,.125-.053h0a.542.542,0,0,0,.125-.089l.018-.018.107-.107.018-.018a.755.755,0,0,0,.089-.125l.018-.018c.018-.036.053-.089.071-.125v-.018a1.251,1.251,0,0,1,.053-.143v-.036l.018-.053v-.3l-.018-.053V12.9l-.018-.053c0-.018-.018-.036-.018-.053l-.018-.036c0-.018-.018-.036-.018-.053s-.018-.018-.018-.036-.018-.036-.036-.053l-.018-.036-.036-.053-.018-.036-.036-.036-.036-.036-.036-.036-.036-.036c-.018,0-.018-.018-.036-.018-.018-.018-.036-.018-.053-.036l-.018-.018c-.018-.018-.036-.018-.053-.036l-.036-.018-.053-.036-.036-.018-.053-.018h-.036l-.036-.018c-4.564-.945-4.617-8.147-4.617-8.254h0V3.791c0-.036,0-.053-.018-.071V3.7a1,1,0,0,0-.677-.749h0a.071.071,0,0,0-.071-.036h-.018a.135.135,0,0,1-.071-.018h-.214a.107.107,0,0,0-.071.018h-.036l-.071.018H385.8l-.071.018-.018.018-.053.036-.036.018-.036.018-.036.018-.036.018-.053.018-.018.018-.053.053v.018l-.054.053h0a1.139,1.139,0,0,0-.143.25h0c-.018.036-.018.053-.036.089s0,0,0,.018c0,.036-.018.053-.018.089V3.7l-.018.071v.089h0c0,.107-.054,7.31-4.617,8.308l-.054.018h-.018l-.089.036h0a1.4,1.4,0,0,0-.321.2h0l-.053.053-.018.018-.036.053-.018.036c-.018.018-.018.036-.036.053l-.018.036-.018.053a.062.062,0,0,1-.018.036.18.18,0,0,0-.018.053.062.062,0,0,1-.018.036l-.018.053v.053l-.018.053v.143C379.736,13.169,379.7,13.169,379.7,13.187Zm6.4-3.958a8.327,8.327,0,0,0,2.888,3.922,8.211,8.211,0,0,0-2.888,3.922,8.327,8.327,0,0,0-2.888-3.922A8.447,8.447,0,0,0,386.1,9.229Z" transform="translate(-320.725 -2.9)" fill="#fff"/>
    <path id="Pfad_29" data-name="Pfad 29" d="M61.665,328.233v-.178a.065.065,0,0,0-.018-.053l-.018-.036a.062.062,0,0,0-.018-.036c0-.018-.018-.036-.018-.053s-.018-.018-.018-.036l-.036-.053c0-.018-.018-.018-.018-.036-.018-.018-.018-.036-.036-.054l-.036-.036c0-.018-.018-.018-.036-.036l-.036-.036-.036-.036-.053-.036-.018-.018-.053-.053-.018-.018-.053-.036-.018-.018-.071-.036-.036-.018c-.018,0-.036-.018-.053-.018h-.036l-.036-.018c-4.546-1-4.6-8.183-4.6-8.308h0v-.089a.107.107,0,0,0-.018-.071c-.018-.018,0-.018,0-.018-.018-.036-.018-.071-.036-.089h0a.962.962,0,0,0-.321-.481h0a.248.248,0,0,0-.071-.053h-.018l-.053-.036-.018-.018-.053-.036-.036-.018-.036-.018-.053-.018H55.55c-.018,0-.036-.018-.053-.018h-.036L55.389,318h-.2l-.071.018h-.036l-.071.018h-.036l-.071.018-.036.018-.053.018-.036.018-.036.018-.036.018-.036.018c-.018.018-.036.018-.053.036l-.018.018-.053.053-.018.018-.053.053h0a1.137,1.137,0,0,0-.143.25h0c-.018.036-.018.053-.036.089v.018a.161.161,0,0,0-.018.089v.018s0,.053-.018.071v.089h0c0,.107-.053,7.31-4.6,8.308l-.053.018H49.6c-.036,0-.053.018-.089.018h0c-.036.018-.053.018-.089.036h0c-.036.018-.053.036-.089.053h0c-.018.018-.053.036-.071.053h0l-.071.053-.018.018-.053.053-.018.018c-.018.018-.036.036-.036.053l-.018.036-.036.053-.018.036-.018.053c0,.018-.018.018-.018.036s-.018.036-.018.053l-.018.071-.018.053v.464c.018.053.018.107.053.143v.018a.447.447,0,0,0,.071.125v.018a.541.541,0,0,0,.089.125l.018.018.107.107.018.018c.036.036.089.053.125.089h0c.036.018.089.036.125.053h.018c.036.018.071.018.107.036,4.564,1,4.617,8.2,4.617,8.308h0v.089a.107.107,0,0,0,.018.071c.018.018,0,.018,0,.018,0,.036.018.053.018.089h0a.892.892,0,0,0,.321.481h0l.071.054h.018l.053.036.018.018.053.018.036.018a.062.062,0,0,1,.036.018l.053.018.036.018.053.018h.036l.071.018h.178l.071-.018h.036c.018,0,.053-.018.071-.018h.018c.018,0,.036-.018.071-.018h.036l.053-.018.036-.018.036-.018.036-.018.036-.018.053-.036.018-.018.053-.053h0a.247.247,0,0,0,.053-.071h0a1.137,1.137,0,0,0,.143-.25h0c.018-.036.018-.053.036-.089v-.018c0-.036.018-.053.018-.089v-.018a.107.107,0,0,1,.018-.071v-.089h0c0-.107.053-7.31,4.6-8.308a.253.253,0,0,0,.107-.036h.018a.863.863,0,0,0,.125-.053h0a.543.543,0,0,0,.125-.089l.018-.018.107-.107.018-.018a.754.754,0,0,0,.089-.125v-.018c.018-.036.053-.089.071-.125v-.018a1.226,1.226,0,0,1,.053-.143V328.3A.574.574,0,0,0,61.665,328.233Zm-6.4,3.958a8.327,8.327,0,0,0-2.888-3.922,8.211,8.211,0,0,0,2.888-3.922,8.327,8.327,0,0,0,2.888,3.922A8.327,8.327,0,0,0,55.265,332.191Z" transform="translate(-48.9 -261.824)" fill="#fff"/>
  </g>
</svg>
