<svg xmlns="http://www.w3.org/2000/svg" width="82.916" height="82.916" viewBox="0 0 82.916 82.916">
  <g id="noun_Star_4402357" opacity="0.25">
    <path id="Pfad_8" data-name="Pfad 8" d="M29.1,43.368a1.105,1.105,0,0,0,.2,1.011l9.707,9.4L36.684,67.13a.961.961,0,0,0,.4,1.011,1.2,1.2,0,0,0,1.011.1l12.134-6.269,11.932,6.269a.912.912,0,0,0,.506.1,1.437,1.437,0,0,0,.607-.2.961.961,0,0,0,.4-1.011L61.357,53.884l9.707-9.4a.805.805,0,0,0,.2-1.011,1.4,1.4,0,0,0-.809-.708L57.11,40.84,51.144,28.706a1.045,1.045,0,0,0-1.82,0L43.358,40.84,30.01,42.66A1.614,1.614,0,0,0,29.1,43.368Zm15.066-.708a1.031,1.031,0,0,0,.809-.506l5.258-10.82,5.258,10.82a.9.9,0,0,0,.809.506l11.932,1.719-8.595,8.393a1.412,1.412,0,0,0-.3.91l2.022,11.831L50.739,59.951a1.315,1.315,0,0,0-1.011,0L39.111,65.512l2.022-11.831a.815.815,0,0,0-.3-.91l-8.595-8.393Z" transform="translate(-8.776 -8.786)" fill="#fff"/>
    <path id="Pfad_9" data-name="Pfad 9" d="M50.011,24.168a1.087,1.087,0,0,0,1.011-1.011V10.011a1.011,1.011,0,0,0-2.022,0V23.156A1.087,1.087,0,0,0,50.011,24.168Z" transform="translate(-8.553 -9)" fill="#fff"/>
    <path id="Pfad_10" data-name="Pfad 10" d="M50.011,91.168a1.013,1.013,0,0,0,1.011-1.011V77.011a1.011,1.011,0,0,0-2.022,0V90.156A1.013,1.013,0,0,0,50.011,91.168Z" transform="translate(-8.553 -8.252)" fill="#fff"/>
    <path id="Pfad_11" data-name="Pfad 11" d="M69.819,31.722l9.3-9.3A1,1,0,0,0,77.706,21l-9.3,9.3a.977.977,0,0,0,0,1.416.977.977,0,0,0,1.416,0Z" transform="translate(-8.34 -8.869)" fill="#fff"/>
    <path id="Pfad_12" data-name="Pfad 12" d="M22.419,79.122l9.3-9.3A1,1,0,1,0,30.306,68.4l-9.3,9.3a.977.977,0,0,0,0,1.416.977.977,0,0,0,1.416,0Z" transform="translate(-8.869 -8.34)" fill="#fff"/>
    <path id="Pfad_13" data-name="Pfad 13" d="M90.156,49H77.011a1.011,1.011,0,0,0,0,2.022H90.156a1.011,1.011,0,0,0,0-2.022Z" transform="translate(-8.252 -8.553)" fill="#fff"/>
    <path id="Pfad_14" data-name="Pfad 14" d="M10.011,51.022H23.156a1.011,1.011,0,1,0,0-2.022H10.011a1.011,1.011,0,0,0,0,2.022Z" transform="translate(-9 -8.553)" fill="#fff"/>
    <path id="Pfad_15" data-name="Pfad 15" d="M69.819,68.4A1,1,0,0,0,68.4,69.819l9.3,9.3a.977.977,0,0,0,1.416,0,.977.977,0,0,0,0-1.416Z" transform="translate(-8.34 -8.34)" fill="#fff"/>
    <path id="Pfad_16" data-name="Pfad 16" d="M22.419,21A1,1,0,1,0,21,22.419l9.3,9.3a.977.977,0,0,0,1.416,0,.977.977,0,0,0,0-1.416Z" transform="translate(-8.869 -8.869)" fill="#fff"/>
    <path id="Pfad_17" data-name="Pfad 17" d="M84.112,35.907A.927.927,0,0,0,82.8,35.4l-8.19,3.337a.927.927,0,0,0-.506,1.315.972.972,0,0,0,.91.607.608.608,0,0,0,.4-.1l8.19-3.337A1.1,1.1,0,0,0,84.112,35.907Z" transform="translate(-8.274 -8.706)" fill="#fff"/>
    <path id="Pfad_18" data-name="Pfad 18" d="M16,64.154a.972.972,0,0,0,.91.607.608.608,0,0,0,.4-.1l8.19-3.438A1,1,0,1,0,24.7,59.4l-8.19,3.337A1.163,1.163,0,0,0,16,64.154Z" transform="translate(-8.923 -8.438)" fill="#fff"/>
    <path id="Pfad_19" data-name="Pfad 19" d="M63.748,84.213a.608.608,0,0,0,.4-.1.927.927,0,0,0,.506-1.315l-3.337-8.19a1,1,0,1,0-1.82.809l3.337,8.19A1.024,1.024,0,0,0,63.748,84.213Z" transform="translate(-8.437 -8.274)" fill="#fff"/>
    <path id="Pfad_20" data-name="Pfad 20" d="M39.749,26.113a.608.608,0,0,0,.4-.1.927.927,0,0,0,.506-1.315l-3.337-8.19A1.163,1.163,0,0,0,35.907,16a.927.927,0,0,0-.506,1.315l3.337,8.19A1.112,1.112,0,0,0,39.749,26.113Z" transform="translate(-8.706 -8.923)" fill="#fff"/>
    <path id="Pfad_21" data-name="Pfad 21" d="M60.31,26.113a.884.884,0,0,0,.91-.607l3.438-8.19a1,1,0,1,0-1.82-.809L59.5,24.7a1,1,0,0,0,.506,1.315A.371.371,0,0,0,60.31,26.113Z" transform="translate(-8.437 -8.923)" fill="#fff"/>
    <path id="Pfad_22" data-name="Pfad 22" d="M36.311,84.213a.884.884,0,0,0,.91-.607l3.337-8.19a1,1,0,1,0-1.82-.809L35.4,82.8a1,1,0,0,0,.506,1.315C36.008,84.111,36.21,84.213,36.311,84.213Z" transform="translate(-8.706 -8.274)" fill="#fff"/>
    <path id="Pfad_23" data-name="Pfad 23" d="M83.506,62.838,75.315,59.5a1,1,0,0,0-.809,1.82l8.19,3.438c.1.1.2.1.4.1a.884.884,0,0,0,.91-.607A1.006,1.006,0,0,0,83.506,62.838Z" transform="translate(-8.275 -8.437)" fill="#fff"/>
    <path id="Pfad_24" data-name="Pfad 24" d="M16,35.906a1,1,0,0,0,.506,1.315l8.19,3.337c.1,0,.2.1.4.1a.884.884,0,0,0,.91-.607,1,1,0,0,0-.506-1.315L17.315,35.4A1,1,0,0,0,16,35.906Z" transform="translate(-8.923 -8.706)" fill="#fff"/>
  </g>
</svg>
