<svg xmlns="http://www.w3.org/2000/svg" width="335.209" height="335.209" viewBox="0 0 335.209 335.209">
  <g id="Survey" transform="translate(-4 -4)" opacity="0.2">
    <g id="Gruppe_39" data-name="Gruppe 39" transform="translate(4 4)">
      <path id="Pfad_41" data-name="Pfad 41" d="M171.6,4C79.422,4,4,71.042,4,154.844,4,195,22.506,233.583,54.281,262.041v77.168l97.246-35.267c6.634,1.746,13.443,1.746,20.078,1.746,92.183,0,167.6-67.042,167.6-150.844S263.787,4,171.6,4Zm0,268.167a85.13,85.13,0,0,1-20.078-1.746H148.21L87.8,292.245V247.027l-6.634-5.063c-26.887-23.395-43.647-55.344-43.647-87.119,0-65.3,60.407-117.323,134.084-117.323S305.688,89.548,305.688,154.844,245.281,272.167,171.6,272.167Z" transform="translate(-4 -4)" fill="#fff"/>
      <path id="Pfad_42" data-name="Pfad 42" d="M121.481,42.4C93.024,42.4,71.2,64.224,71.2,92.681h33.521c0-10.126,6.634-16.76,16.76-16.76s16.76,6.634,16.76,16.76c0,5.063-1.746,10.126-6.634,13.443-16.76,11.7-26.887,30.2-26.887,48.536v5.063h33.521V154.66c0-11.7,8.38-18.506,13.443-21.824,11.7-10.126,20.078-25.141,20.078-40.155C171.763,64.224,149.939,42.4,121.481,42.4Z" transform="translate(46.123 24.642)" fill="#fff"/>
      <rect id="Rechteck_72" data-name="Rechteck 72" width="33.521" height="33.521" transform="translate(150.844 201.126)" fill="#fff"/>
    </g>
  </g>
</svg>
