<svg xmlns="http://www.w3.org/2000/svg" width="383.311" height="323.5" viewBox="0 0 383.311 323.5">
  <g id="Training" transform="translate(-4.068 -20)" opacity="0.198">
    <path id="Pfad_40" data-name="Pfad 40" d="M370.965,92.488,211.012,23a40.963,40.963,0,0,0-30.753,0L20.307,92.488A24.966,24.966,0,0,0,5.53,124.239a25.659,25.659,0,0,0,14.777,14.777l7.588,3.2V292.379L8.325,325.528A11.985,11.985,0,0,0,12.519,341.9a12.8,12.8,0,0,0,5.991,1.6H60.445a12.017,12.017,0,0,0,11.981-11.982,12.2,12.2,0,0,0-1.6-5.991l-19.37-33.149V152.995l23.963,10.384v70.891c0,16.774,12.78,32.35,35.944,43.932,22.365,11.382,52.319,17.573,83.87,17.573s61.5-6.19,84.07-17.373c23.164-11.582,35.944-27.158,35.944-43.932v-71.09l54.915-23.763.8-.2a24.99,24.99,0,0,0,0-46.928ZM291.488,234.269c0,6.989-8.587,15.576-22.565,22.565a134.556,134.556,0,0,1-32.749,10.983,205.211,205.211,0,0,1-81.075,0,126.557,126.557,0,0,1-32.749-10.983c-14.178-6.989-22.765-15.376-22.765-22.565V173.762l80.476,34.946a40.963,40.963,0,0,0,30.753,0l80.675-34.946ZM361.38,117.25,201.427,186.742a16.516,16.516,0,0,1-11.582,0L29.892,117.25a4.565,4.565,0,0,1-2-1.4,7.172,7.172,0,0,1,2-1.4L189.645,44.961a16.516,16.516,0,0,1,11.582,0L361.38,114.454a4.565,4.565,0,0,1,2,1.4A7.172,7.172,0,0,1,361.38,117.25Z" transform="translate(0 0)" fill="#fff"/>
  </g>
</svg>
